<?xml version="1.0" standalone="no"?>
<!DOCTYPE svg PUBLIC "-//W3C//DTD SVG 20010904//EN"
 "http://www.w3.org/TR/2001/REC-SVG-20010904/DTD/svg10.dtd">
<svg version="1.0" xmlns="http://www.w3.org/2000/svg"
 width="139.000000pt" height="139.000000pt" viewBox="0 0 139.000000 139.000000"
 preserveAspectRatio="xMidYMid meet">
<metadata>
Created by potrace 1.14, written by Peter Selinger 2001-2017
</metadata>
<g transform="translate(0.000000,139.000000) scale(0.100000,-0.100000)"
fill="#000000" stroke="none">
<path d="M636 995 c-45 -16 -31 -3 -322 -294 -138 -137 -234 -241 -234 -252 0
-25 26 -36 78 -35 42 2 47 6 262 221 l220 220 55 0 55 0 219 -219 c214 -214
220 -219 262 -221 24 -1 52 2 62 7 42 21 19 50 -233 300 -137 136 -262 254
-278 262 -41 21 -102 26 -146 11z"/>
<path d="M487 602 l-187 -187 62 0 63 0 110 112 c61 61 121 116 135 121 41 16
76 -7 192 -125 l108 -109 52 2 c29 1 55 2 58 3 3 0 -78 84 -180 186 -118 118
-192 185 -205 185 -13 0 -88 -68 -208 -188z"/>
<path d="M610 499 c-41 -44 -76 -80 -77 -82 -1 -1 72 -2 162 -2 164 -1 164 -1
147 20 -28 34 -144 145 -151 144 -3 0 -40 -36 -81 -80z"/>
</g>
</svg>
